<mxfile host="Electron" modified="2023-09-25T13:45:53.878Z" agent="Mozilla/5.0 (Windows NT 10.0; Win64; x64) AppleWebKit/537.36 (KHTML, like Gecko) draw.io/21.7.5 Chrome/114.0.5735.289 Electron/25.8.1 Safari/537.36" etag="-s0Tz4aeW8RvOF2TbTTi" version="21.7.5" type="device">
  <diagram name="Page-1" id="ksVF2dJSMPIN09-6JIKf">
    <mxGraphModel dx="1630" dy="504" grid="1" gridSize="10" guides="1" tooltips="1" connect="1" arrows="1" fold="1" page="1" pageScale="1" pageWidth="850" pageHeight="1100" math="0" shadow="0">
      <root>
        <mxCell id="0" />
        <mxCell id="1" parent="0" />
        <mxCell id="AA2b0JfBBNVYprVC2Mq3-2" value="" style="rounded=0;whiteSpace=wrap;html=1;" vertex="1" parent="1">
          <mxGeometry x="160" y="60" width="10" height="170" as="geometry" />
        </mxCell>
        <mxCell id="AA2b0JfBBNVYprVC2Mq3-3" value="Cargo door" style="text;html=1;align=center;verticalAlign=middle;resizable=0;points=[];autosize=1;strokeColor=none;fillColor=none;" vertex="1" parent="1">
          <mxGeometry x="80" y="150" width="80" height="30" as="geometry" />
        </mxCell>
        <mxCell id="AA2b0JfBBNVYprVC2Mq3-4" value="" style="endArrow=none;html=1;rounded=0;dashed=1;dashPattern=12 12;" edge="1" parent="1">
          <mxGeometry width="50" height="50" relative="1" as="geometry">
            <mxPoint x="610" y="470" as="sourcePoint" />
            <mxPoint x="610" y="230" as="targetPoint" />
          </mxGeometry>
        </mxCell>
        <mxCell id="AA2b0JfBBNVYprVC2Mq3-5" value="" style="triangle;whiteSpace=wrap;html=1;rotation=0;" vertex="1" parent="1">
          <mxGeometry x="590" y="230" width="20" height="24.15" as="geometry" />
        </mxCell>
        <mxCell id="AA2b0JfBBNVYprVC2Mq3-6" value="" style="endArrow=none;html=1;rounded=0;entryX=0;entryY=0.5;entryDx=0;entryDy=0;exitX=1;exitY=0.5;exitDx=0;exitDy=0;" edge="1" parent="1" source="AA2b0JfBBNVYprVC2Mq3-5" target="AA2b0JfBBNVYprVC2Mq3-5">
          <mxGeometry width="50" height="50" relative="1" as="geometry">
            <mxPoint x="410" y="330" as="sourcePoint" />
            <mxPoint x="580" y="250" as="targetPoint" />
          </mxGeometry>
        </mxCell>
        <mxCell id="AA2b0JfBBNVYprVC2Mq3-11" value="TX/RX" style="text;html=1;align=center;verticalAlign=middle;resizable=0;points=[];autosize=1;strokeColor=none;fillColor=none;" vertex="1" parent="1">
          <mxGeometry x="570" y="200" width="60" height="30" as="geometry" />
        </mxCell>
        <mxCell id="AA2b0JfBBNVYprVC2Mq3-16" value="" style="rounded=0;whiteSpace=wrap;html=1;rotation=-90;fillColor=#66B2FF;aspect=fixed;" vertex="1" parent="1">
          <mxGeometry x="370" y="370" width="40" height="30" as="geometry" />
        </mxCell>
        <mxCell id="AA2b0JfBBNVYprVC2Mq3-17" value="Strong Reflector" style="text;html=1;align=center;verticalAlign=middle;resizable=0;points=[];autosize=1;strokeColor=none;fillColor=none;" vertex="1" parent="1">
          <mxGeometry x="335" y="450" width="110" height="30" as="geometry" />
        </mxCell>
        <mxCell id="AA2b0JfBBNVYprVC2Mq3-18" value="" style="rounded=0;whiteSpace=wrap;html=1;" vertex="1" parent="1">
          <mxGeometry x="160" y="230" width="30" height="250" as="geometry" />
        </mxCell>
        <mxCell id="AA2b0JfBBNVYprVC2Mq3-20" value="Wall" style="text;html=1;align=center;verticalAlign=middle;resizable=0;points=[];autosize=1;strokeColor=none;fillColor=none;" vertex="1" parent="1">
          <mxGeometry x="95" y="330" width="50" height="30" as="geometry" />
        </mxCell>
        <mxCell id="AA2b0JfBBNVYprVC2Mq3-21" value="" style="endArrow=classic;html=1;rounded=0;startArrow=oval;startFill=1;endSize=6;startSize=3;" edge="1" parent="1">
          <mxGeometry width="50" height="50" relative="1" as="geometry">
            <mxPoint x="5" y="480" as="sourcePoint" />
            <mxPoint x="125" y="480" as="targetPoint" />
          </mxGeometry>
        </mxCell>
        <mxCell id="AA2b0JfBBNVYprVC2Mq3-22" value="" style="endArrow=classic;html=1;rounded=0;" edge="1" parent="1">
          <mxGeometry width="50" height="50" relative="1" as="geometry">
            <mxPoint x="5" y="480" as="sourcePoint" />
            <mxPoint x="5" y="360" as="targetPoint" />
          </mxGeometry>
        </mxCell>
        <mxCell id="AA2b0JfBBNVYprVC2Mq3-23" value="" style="ellipse;whiteSpace=wrap;html=1;aspect=fixed;fillColor=none;connectable=1;allowArrows=0;" vertex="1" parent="1">
          <mxGeometry x="-5" y="470" width="20" height="20" as="geometry" />
        </mxCell>
        <mxCell id="AA2b0JfBBNVYprVC2Mq3-24" value="x" style="text;strokeColor=none;align=center;fillColor=none;html=1;verticalAlign=middle;whiteSpace=wrap;rounded=0;" vertex="1" parent="1">
          <mxGeometry x="85" y="480" width="60" height="20" as="geometry" />
        </mxCell>
        <mxCell id="AA2b0JfBBNVYprVC2Mq3-25" value="y" style="text;strokeColor=none;align=center;fillColor=none;html=1;verticalAlign=middle;whiteSpace=wrap;rounded=0;" vertex="1" parent="1">
          <mxGeometry x="-35" y="350" width="60" height="30" as="geometry" />
        </mxCell>
        <mxCell id="AA2b0JfBBNVYprVC2Mq3-26" value="z" style="text;strokeColor=none;align=center;fillColor=none;html=1;verticalAlign=middle;whiteSpace=wrap;rounded=0;" vertex="1" parent="1">
          <mxGeometry x="-35" y="480" width="50" height="20" as="geometry" />
        </mxCell>
        <mxCell id="AA2b0JfBBNVYprVC2Mq3-28" value="" style="endArrow=none;dashed=1;html=1;rounded=0;entryX=-0.144;entryY=0.382;entryDx=0;entryDy=0;entryPerimeter=0;dashPattern=1 2;strokeWidth=2;" edge="1" parent="1" target="AA2b0JfBBNVYprVC2Mq3-5">
          <mxGeometry width="50" height="50" relative="1" as="geometry">
            <mxPoint x="200" y="240" as="sourcePoint" />
            <mxPoint x="475" y="254.15" as="targetPoint" />
          </mxGeometry>
        </mxCell>
        <mxCell id="AA2b0JfBBNVYprVC2Mq3-29" value="" style="endArrow=none;dashed=1;html=1;rounded=0;" edge="1" parent="1">
          <mxGeometry width="50" height="50" relative="1" as="geometry">
            <mxPoint x="200" y="300" as="sourcePoint" />
            <mxPoint x="590" y="240" as="targetPoint" />
          </mxGeometry>
        </mxCell>
        <mxCell id="AA2b0JfBBNVYprVC2Mq3-30" value="" style="endArrow=classic;dashed=1;html=1;strokeWidth=1;rounded=0;endFill=1;" edge="1" parent="1">
          <mxGeometry width="50" height="50" relative="1" as="geometry">
            <mxPoint x="200" y="300" as="sourcePoint" />
            <mxPoint x="340" y="350" as="targetPoint" />
          </mxGeometry>
        </mxCell>
        <mxCell id="AA2b0JfBBNVYprVC2Mq3-31" value="" style="endArrow=classic;html=1;rounded=0;fillColor=#a20025;strokeColor=#6F0000;" edge="1" parent="1">
          <mxGeometry width="50" height="50" relative="1" as="geometry">
            <mxPoint x="360" y="370" as="sourcePoint" />
            <mxPoint x="210" y="320" as="targetPoint" />
          </mxGeometry>
        </mxCell>
        <mxCell id="AA2b0JfBBNVYprVC2Mq3-32" value="" style="endArrow=classic;html=1;rounded=0;fillColor=#a20025;strokeColor=#6F0000;" edge="1" parent="1">
          <mxGeometry width="50" height="50" relative="1" as="geometry">
            <mxPoint x="210" y="320" as="sourcePoint" />
            <mxPoint x="590" y="260" as="targetPoint" />
          </mxGeometry>
        </mxCell>
        <mxCell id="AA2b0JfBBNVYprVC2Mq3-33" value="" style="verticalLabelPosition=bottom;verticalAlign=top;html=1;shape=mxgraph.basic.arc;startAngle=0.3;endAngle=0.35762768682245427;rotation=-210;" vertex="1" parent="1">
          <mxGeometry x="460" y="200" width="100" height="100" as="geometry" />
        </mxCell>
        <mxCell id="AA2b0JfBBNVYprVC2Mq3-34" value="Î¸" style="text;html=1;align=center;verticalAlign=middle;resizable=0;points=[];autosize=1;strokeColor=none;fillColor=none;" vertex="1" parent="1">
          <mxGeometry x="430" y="235" width="30" height="30" as="geometry" />
        </mxCell>
      </root>
    </mxGraphModel>
  </diagram>
</mxfile>
